<?xml version="1.0" encoding="UTF-8" standalone="no"?>
<svg
   xmlns:dc="http://purl.org/dc/elements/1.1/"
   xmlns:cc="http://creativecommons.org/ns#"
   xmlns:rdf="http://www.w3.org/1999/02/22-rdf-syntax-ns#"
   xmlns:svg="http://www.w3.org/2000/svg"
   xmlns="http://www.w3.org/2000/svg"
   xmlns:xlink="http://www.w3.org/1999/xlink"
   xmlns:sodipodi="http://sodipodi.sourceforge.net/DTD/sodipodi-0.dtd"
   xmlns:inkscape="http://www.inkscape.org/namespaces/inkscape"
   width="48"
   height="48"
   viewBox="0 0 192 192"
   version="1.1"
   id="svg4099"
   sodipodi:docname="favicon.svg"
   inkscape:version="0.92.4 (unknown)">
  <metadata
     id="metadata4103">
    <rdf:RDF>
      <cc:Work
         rdf:about="">
        <dc:format>image/svg+xml</dc:format>
        <dc:type
           rdf:resource="http://purl.org/dc/dcmitype/StillImage" />
        <dc:title></dc:title>
      </cc:Work>
    </rdf:RDF>
  </metadata>
  <sodipodi:namedview
     pagecolor="#ffffff"
     bordercolor="#666666"
     borderopacity="1"
     objecttolerance="10"
     gridtolerance="10"
     guidetolerance="10"
     inkscape:pageopacity="0"
     inkscape:pageshadow="2"
     inkscape:window-width="1601"
     inkscape:window-height="1216"
     id="namedview4101"
     showgrid="false"
     inkscape:zoom="21.5625"
     inkscape:cx="24"
     inkscape:cy="24"
     inkscape:window-x="67"
     inkscape:window-y="30"
     inkscape:window-maximized="0"
     inkscape:current-layer="layer2" />
  <defs
     id="defs3948">
    <circle
       id="a"
       cx="96"
       cy="96"
       r="88" />
    <clipPath
       id="SVGID_2_">
      <use
         xlink:href="#SVGID_1_"
         overflow="visible"
         id="use3571"
         style="overflow:visible"
         x="0"
         y="0"
         width="100%"
         height="100%" />
    </clipPath>
    <linearGradient
       id="SVGID_3_"
       gradientUnits="userSpaceOnUse"
       x1="1893.3184"
       y1="-2381.9795"
       x2="1901.8867"
       y2="-2381.9795"
       gradientTransform="matrix(1,0,0,-1,-1788,-2321)">
      <stop
         offset="0.0056"
         style="stop-color:#6176B9"
         id="stop3588" />
      <stop
         offset="0.691"
         style="stop-color:#394A9F"
         id="stop3590" />
    </linearGradient>
    <linearGradient
       id="SVGID_4_"
       gradientUnits="userSpaceOnUse"
       x1="1920.2734"
       y1="-2379.3711"
       x2="1928.0781"
       y2="-2379.3711"
       gradientTransform="matrix(1,0,0,-1,-1788,-2321)">
      <stop
         offset="0.0056"
         style="stop-color:#6176B9"
         id="stop3595" />
      <stop
         offset="0.691"
         style="stop-color:#394A9F"
         id="stop3597" />
    </linearGradient>
    <path
       id="SVGID_1_"
       d="m 178.684,78.824 c 0,28.316 -23.035,51.354 -51.354,51.354 -28.313,0 -51.348,-23.039 -51.348,-51.354 0,-28.313 23.036,-51.349 51.348,-51.349 28.318,0 51.354,23.036 51.354,51.349 z"
       inkscape:connector-curvature="0" />
    <clipPath
       id="SVGID_2_-1">
      <use
         xlink:href="#SVGID_1_-7"
         overflow="visible"
         id="use3571-7"
         style="overflow:visible"
         x="0"
         y="0"
         width="100%"
         height="100%" />
    </clipPath>
    <linearGradient
       id="SVGID_3_-7"
       gradientUnits="userSpaceOnUse"
       x1="1893.3184"
       y1="-2381.9795"
       x2="1901.8867"
       y2="-2381.9795"
       gradientTransform="matrix(1,0,0,-1,-1788,-2321)">
      <stop
         offset="0.0056"
         style="stop-color:#6176B9"
         id="stop3588-1" />
      <stop
         offset="0.691"
         style="stop-color:#394A9F"
         id="stop3590-1" />
    </linearGradient>
    <linearGradient
       id="SVGID_4_-5"
       gradientUnits="userSpaceOnUse"
       x1="1920.2734"
       y1="-2379.3711"
       x2="1928.0781"
       y2="-2379.3711"
       gradientTransform="matrix(1,0,0,-1,-1788,-2321)">
      <stop
         offset="0.0056"
         style="stop-color:#6176B9"
         id="stop3595-9" />
      <stop
         offset="0.691"
         style="stop-color:#394A9F"
         id="stop3597-7" />
    </linearGradient>
    <path
       id="SVGID_1_-7"
       d="m 178.684,78.824 c 0,28.316 -23.035,51.354 -51.354,51.354 -28.313,0 -51.348,-23.039 -51.348,-51.354 0,-28.313 23.036,-51.349 51.348,-51.349 28.318,0 51.354,23.036 51.354,51.349 z"
       inkscape:connector-curvature="0" />
  </defs>
  <clipPath
     id="b">
    <use
       xlink:href="#a"
       overflow="visible"
       id="use3950" />
  </clipPath>
  <radialGradient
     id="l"
     cx="668.176"
     cy="55.948"
     r="84.078"
     gradientTransform="translate(-576)"
     gradientUnits="userSpaceOnUse">
    <stop
       offset="0"
       stop-color="#3e2723"
       stop-opacity=".2"
       id="stop4028" />
    <stop
       offset="1"
       stop-color="#3e2723"
       stop-opacity="0"
       id="stop4030" />
  </radialGradient>
  <radialGradient
     id="p"
     cx="597.875"
     cy="48.52"
     r="78.044"
     gradientTransform="translate(-576)"
     gradientUnits="userSpaceOnUse">
    <stop
       offset="0"
       stop-color="#3e2723"
       stop-opacity=".2"
       id="stop4054" />
    <stop
       offset="1"
       stop-color="#3e2723"
       stop-opacity="0"
       id="stop4056" />
  </radialGradient>
  <radialGradient
     id="q"
     cx="671.844"
     cy="96.138"
     r="87.87"
     gradientTransform="translate(-576)"
     gradientUnits="userSpaceOnUse">
    <stop
       offset="0"
       stop-color="#263238"
       stop-opacity=".2"
       id="stop4061" />
    <stop
       offset="1"
       stop-color="#263238"
       stop-opacity="0"
       id="stop4063" />
  </radialGradient>
  <radialGradient
     id="r"
     cx="34.286"
     cy="32.014"
     r="176.746"
     gradientUnits="userSpaceOnUse"
     gradientTransform="matrix(0.41951626,0,0,0.58165138,106.80901,76.976147)">
    <stop
       offset="0"
       stop-color="#fff"
       stop-opacity=".1"
       id="stop4090" />
    <stop
       offset="1"
       stop-color="#fff"
       stop-opacity="0"
       id="stop4092" />
  </radialGradient>
  <g
     inkscape:groupmode="layer"
     id="layer2"
     inkscape:label="Layer 1"
     style="display:inline">
    <g
       clip-path="url(#b)"
       id="g3962">
      <path
         d="M 21.97,8 V 116 H 61.36 L 96,56 h 88 V 8 Z"
         id="path3953"
         inkscape:connector-curvature="0"
         style="fill:#db4437" />
      <linearGradient
         id="c"
         gradientUnits="userSpaceOnUse"
         x1="29.337"
         y1="75.021004"
         x2="81.836998"
         y2="44.354">
        <stop
           offset="0"
           stop-color="#a52714"
           stop-opacity=".6"
           id="stop3955" />
        <stop
           offset=".66"
           stop-color="#a52714"
           stop-opacity="0"
           id="stop3957" />
      </linearGradient>
      <path
         d="M 21.97,8 V 116 H 61.36 L 96,56 h 88 V 8 Z"
         id="path3960"
         inkscape:connector-curvature="0"
         style="fill:url(#c)" />
    </g>
    <path
       style="fill:#3e2723;fill-opacity:0.15"
       clip-path="url(#b)"
       d="m 62.31,115.65 -39.83,-68.31 -0.58,1 39.54,67.8 z"
       id="path3964"
       inkscape:connector-curvature="0" />
    <g
       clip-path="url(#b)"
       id="g3975">
      <path
         d="m 8,184 h 83.77 l 38.88,-38.88 V 116 H 61.36 L 8,24.48 Z"
         id="path3966"
         inkscape:connector-curvature="0"
         style="fill:#0f9d58" />
      <linearGradient
         id="d"
         gradientUnits="userSpaceOnUse"
         x1="110.872"
         y1="164.495"
         x2="52.537998"
         y2="130.32899">
        <stop
           offset="0"
           stop-color="#055524"
           stop-opacity=".4"
           id="stop3968" />
        <stop
           offset=".33"
           stop-color="#055524"
           stop-opacity="0"
           id="stop3970" />
      </linearGradient>
      <path
         d="m 8,184 h 83.77 l 38.88,-38.88 V 116 H 61.36 L 8,24.48 Z"
         id="path3973"
         inkscape:connector-curvature="0"
         style="fill:url(#d)" />
    </g>
    <path
       style="fill:#263238;fill-opacity:0.15"
       clip-path="url(#b)"
       d="M 129.84,117.33 129.01,116.85 90.62,184 h 1.15 l 38.1,-66.64 z"
       id="path3977"
       inkscape:connector-curvature="0" />
    <g
       clip-path="url(#b)"
       id="g3996">
      <defs
         id="defs3980">
        <path
           id="e"
           d="m 8,184 h 83.77 l 38.88,-38.88 V 116 H 61.36 L 8,24.48 Z"
           inkscape:connector-curvature="0" />
      </defs>
      <clipPath
         id="f">
        <use
           xlink:href="#e"
           overflow="visible"
           id="use3982"
           style="overflow:visible"
           x="0"
           y="0"
           width="100%"
           height="100%" />
      </clipPath>
      <g
         clip-path="url(#f)"
         id="g3994">
        <path
           d="m 96,56 34.65,60 -38.88,68 H 184 V 56 Z"
           id="path3985"
           inkscape:connector-curvature="0"
           style="fill:#ffcd40" />
        <linearGradient
           id="g"
           gradientUnits="userSpaceOnUse"
           x1="121.858"
           y1="49.804001"
           x2="136.547"
           y2="114.13">
          <stop
             offset="0"
             stop-color="#ea6100"
             stop-opacity=".3"
             id="stop3987" />
          <stop
             offset=".66"
             stop-color="#ea6100"
             stop-opacity="0"
             id="stop3989" />
        </linearGradient>
        <path
           d="m 96,56 34.65,60 -38.88,68 H 184 V 56 Z"
           id="path3992"
           inkscape:connector-curvature="0"
           style="fill:url(#g)" />
      </g>
    </g>
    <g
       clip-path="url(#b)"
       id="g4007">
      <path
         d="m 96,56 34.65,60 -38.88,68 H 184 V 56 Z"
         id="path3998"
         inkscape:connector-curvature="0"
         style="fill:#ffcd40" />
      <linearGradient
         id="h"
         gradientUnits="userSpaceOnUse"
         x1="121.858"
         y1="49.804001"
         x2="136.547"
         y2="114.13">
        <stop
           offset="0"
           stop-color="#ea6100"
           stop-opacity=".3"
           id="stop4000" />
        <stop
           offset=".66"
           stop-color="#ea6100"
           stop-opacity="0"
           id="stop4002" />
      </linearGradient>
      <path
         d="m 96,56 34.65,60 -38.88,68 H 184 V 56 Z"
         id="path4005"
         inkscape:connector-curvature="0"
         style="fill:url(#h)" />
    </g>
    <g
       clip-path="url(#b)"
       id="g4026">
      <defs
         id="defs4010">
        <path
           id="i"
           d="m 96,56 34.65,60 -38.88,68 H 184 V 56 Z"
           inkscape:connector-curvature="0" />
      </defs>
      <clipPath
         id="j">
        <use
           xlink:href="#i"
           overflow="visible"
           id="use4012"
           style="overflow:visible"
           x="0"
           y="0"
           width="100%"
           height="100%" />
      </clipPath>
      <g
         clip-path="url(#j)"
         id="g4024">
        <path
           d="M 21.97,8 V 116 H 61.36 L 96,56 h 88 V 8 Z"
           id="path4015"
           inkscape:connector-curvature="0"
           style="fill:#db4437" />
        <linearGradient
           id="k"
           gradientUnits="userSpaceOnUse"
           x1="29.337"
           y1="75.021004"
           x2="81.836998"
           y2="44.354">
          <stop
             offset="0"
             stop-color="#a52714"
             stop-opacity=".6"
             id="stop4017" />
          <stop
             offset=".66"
             stop-color="#a52714"
             stop-opacity="0"
             id="stop4019" />
        </linearGradient>
        <path
           d="M 21.97,8 V 116 H 61.36 L 96,56 h 88 V 8 Z"
           id="path4022"
           inkscape:connector-curvature="0"
           style="fill:url(#k)" />
      </g>
    </g>
    <path
       style="fill:url(#l)"
       clip-path="url(#b)"
       d="M 96,56 V 76.95 L 174.4,56 Z"
       id="path4033"
       inkscape:connector-curvature="0" />
    <g
       clip-path="url(#b)"
       id="g4052">
      <defs
         id="defs4036">
        <path
           id="m"
           d="M 21.97,8 V 48.34 L 61.36,116 96,56 h 88 V 8 Z"
           inkscape:connector-curvature="0" />
      </defs>
      <clipPath
         id="n">
        <use
           xlink:href="#m"
           overflow="visible"
           id="use4038"
           style="overflow:visible"
           x="0"
           y="0"
           width="100%"
           height="100%" />
      </clipPath>
      <g
         clip-path="url(#n)"
         id="g4050">
        <path
           d="m 8,184 h 83.77 l 38.88,-38.88 V 116 H 61.36 L 8,24.48 Z"
           id="path4041"
           inkscape:connector-curvature="0"
           style="fill:#0f9d58" />
        <linearGradient
           id="o"
           gradientUnits="userSpaceOnUse"
           x1="110.872"
           y1="164.495"
           x2="52.537998"
           y2="130.32899">
          <stop
             offset="0"
             stop-color="#055524"
             stop-opacity=".4"
             id="stop4043" />
          <stop
             offset=".33"
             stop-color="#055524"
             stop-opacity="0"
             id="stop4045" />
        </linearGradient>
        <path
           d="m 8,184 h 83.77 l 38.88,-38.88 V 116 H 61.36 L 8,24.48 Z"
           id="path4048"
           inkscape:connector-curvature="0"
           style="fill:url(#o)" />
      </g>
    </g>
    <path
       style="fill:url(#p)"
       clip-path="url(#b)"
       d="M 21.97,48.45 79.22,105.69 61.36,116 Z"
       id="path4059"
       inkscape:connector-curvature="0" />
    <path
       style="fill:url(#q)"
       clip-path="url(#b)"
       d="m 91.83,183.89 20.96,-78.2 17.86,10.31 z"
       id="path4066"
       inkscape:connector-curvature="0" />
    <g
       clip-path="url(#b)"
       id="g4072">
      <circle
         cx="96"
         cy="96"
         r="40"
         id="circle4068"
         style="fill:#f1f1f1" />
    </g>
    <g
       clip-path="url(#b)"
       id="g4082">
      <path
         d="M 96,55 C 73.91,55 56,72.91 56,95 v 1 C 56,73.91 73.91,56 96,56 h 88 v -1 z"
         id="path4074"
         inkscape:connector-curvature="0"
         style="fill:#3e2723;fill-opacity:0.2" />
      <path
         d="m 130.6,116 c -6.92,11.94 -19.81,20 -34.6,20 -14.8,0 -27.69,-8.06 -34.61,-20 H 61.35 L 8,24.48 v 1 L 61.36,117 h 0.04 c 6.92,11.94 19.81,20 34.61,20 14.79,0 27.68,-8.05 34.6,-20 h 0.05 v -1 z"
         id="path4076"
         inkscape:connector-curvature="0"
         style="fill:#ffffff;fill-opacity:0.1" />
      <path
         d="m 97,56 c -0.17,0 -0.33,0.02 -0.5,0.03 21.86,0.27 39.5,18.05 39.5,39.97 0,21.92 -17.64,39.7 -39.5,39.97 0.17,0 0.33,0.03 0.5,0.03 22.09,0 40,-17.91 40,-40 0,-22.09 -17.91,-40 -40,-40 z"
         id="path4078"
         inkscape:connector-curvature="0"
         style="opacity:0.1;fill:#3e2723" />
      <path
         d="m 131,117.33 c 3.4,-5.88 5.37,-12.68 5.37,-19.96 0,-4.22 -0.66,-8.28 -1.87,-12.09 0.95,3.42 1.5,7.01 1.5,10.73 0,7.28 -1.97,14.08 -5.37,19.96 l 0.02,0.04 -38.88,68 h 1.16 l 38.09,-66.64 z"
         id="path4080"
         inkscape:connector-curvature="0"
         style="fill:#ffffff;fill-opacity:0.2" />
    </g>
    <g
       clip-path="url(#b)"
       id="g4088">
      <path
         d="m 96,9 c 48.43,0 87.72,39.13 87.99,87.5 0,-0.17 0.01,-0.33 0.01,-0.5 C 184,47.4 144.6,8 96,8 47.4,8 8,47.4 8,96 8,96.17 8.01,96.33 8.01,96.5 8.28,48.13 47.57,9 96,9 Z"
         id="path4084"
         inkscape:connector-curvature="0"
         style="fill:#ffffff;fill-opacity:0.2" />
      <path
         d="m 96,183 c 48.43,0 87.72,-39.13 87.99,-87.5 0,0.17 0.01,0.33 0.01,0.5 0,48.6 -39.4,88 -88,88 C 47.4,184 8,144.6 8,96 8,95.83 8.01,95.67 8.01,95.5 8.28,143.87 47.57,183 96,183 Z"
         id="path4086"
         inkscape:connector-curvature="0"
         style="fill:#3e2723;fill-opacity:0.15" />
    </g>
    <ellipse
       cx="147.08257"
       cy="132.81468"
       id="circle4095"
       style="fill:url(#r);stroke-width:0.49397594"
       rx="36.917431"
       ry="51.185322" />
    <path
       style="fill:none"
       d="M 0,0 H 192 V 192 H 0 Z"
       id="path4097"
       inkscape:connector-curvature="0" />
  </g>
  <g
     inkscape:groupmode="layer"
     id="layer4"
     inkscape:label="Layer 3">
    <circle
       id="path6029"
       cx="96.773621"
       cy="96.021416"
       style="fill:#ffffff;stroke-width:3.47380853"
       r="62.528549" />
  </g>
  <g
     inkscape:groupmode="layer"
     id="layer3"
     inkscape:label="Layer 2"
     style="display:inline">
    <circle
       cx="96.001137"
       cy="96.001152"
       r="57.969997"
       id="circle3499"
       style="fill:#de5833;stroke-width:1.13333333" />
    <g
       transform="matrix(1.1333333,0,0,1.1333333,-48.128467,4.3939225)"
       id="g3543">
      <g
         id="g3545">
        <g
           id="g3547">
          <g
             id="g3549">
            <g
               id="g3551">
              <g
                 id="g3553">
                <g
                   id="g3555">
                  <g
                     id="g3557">
                    <g
                       id="g3559">
                      <g
                         id="g3561">
                        <g
                           id="g3563">
                          <g
                             id="g3565">
                            <defs
                               id="defs3567">
                              <path
                                 id="path5710"
                                 d="m 178.684,78.824 c 0,28.316 -23.035,51.354 -51.354,51.354 -28.313,0 -51.348,-23.039 -51.348,-51.354 0,-28.313 23.036,-51.349 51.348,-51.349 28.318,0 51.354,23.036 51.354,51.349 z"
                                 inkscape:connector-curvature="0" />
                            </defs>
                            <clipPath
                               id="clipPath5035">
                              <use
                                 xlink:href="#SVGID_1_-7"
                                 overflow="visible"
                                 id="use5033"
                                 style="overflow:visible"
                                 x="0"
                                 y="0"
                                 width="100%"
                                 height="100%" />
                            </clipPath>
                            <g
                               clip-path="url(#SVGID_2_-1)"
                               id="g3573">
                              <path
                                 d="m 148.293,155.158 c -1.801,-8.285 -12.262,-27.039 -16.23,-34.969 -3.965,-7.932 -7.938,-19.11 -6.129,-26.322 0.328,-1.312 -3.436,-11.308 -2.354,-12.015 8.416,-5.489 10.632,0.599 14.002,-1.862 1.734,-1.273 4.09,1.047 4.689,-1.06 2.158,-7.567 -3.006,-20.76 -8.771,-26.526 -1.885,-1.879 -4.771,-3.06 -8.03,-3.687 -1.254,-1.713 -3.275,-3.36 -6.138,-4.879 -3.188,-1.697 -10.121,-3.938 -13.717,-4.535 -2.492,-0.41 -3.055,0.287 -4.119,0.461 0.992,0.088 5.699,2.414 6.615,2.549 -0.916,0.619 -3.607,-0.028 -5.324,0.742 -0.865,0.392 -1.512,1.877 -1.506,2.58 4.91,-0.496 12.574,-0.016 17.1,2 -3.602,0.41 -9.08,0.867 -11.436,2.105 -6.848,3.608 -9.873,12.035 -8.07,22.133 1.804,10.075 9.738,46.85 12.262,59.129 2.525,12.264 -5.408,20.189 -10.455,22.354 l 5.408,0.363 -1.801,3.967 c 6.484,0.719 13.695,-1.439 13.695,-1.439 -1.438,3.965 -11.176,5.412 -11.176,5.412 0,0 4.691,1.438 12.258,-1.447 7.578,-2.883 12.263,-4.688 12.263,-4.688 l 3.604,9.373 6.854,-6.847 2.885,7.211 c 0.014,-0.001 5.424,-1.808 3.621,-10.103 z"
                                 id="path3575"
                                 inkscape:connector-curvature="0"
                                 style="fill:#d5d7d8" />
                              <path
                                 d="m 150.471,153.477 c -1.795,-8.289 -12.256,-27.043 -16.228,-34.979 -3.97,-7.936 -7.935,-19.112 -6.13,-26.321 0.335,-1.309 0.341,-6.668 1.429,-7.379 8.411,-5.494 7.812,-0.184 11.187,-2.645 1.74,-1.271 3.133,-2.806 3.738,-4.912 2.164,-7.572 -3.006,-20.76 -8.773,-26.529 -1.879,-1.879 -4.768,-3.062 -8.023,-3.686 -1.252,-1.718 -3.271,-3.361 -6.13,-4.882 -5.391,-2.862 -12.074,-4.006 -18.266,-2.883 0.99,0.09 3.256,2.138 4.168,2.273 -1.381,0.936 -5.053,0.815 -5.029,2.896 4.916,-0.492 10.303,0.285 14.834,2.297 -3.602,0.41 -6.955,1.3 -9.311,2.543 -6.854,3.603 -8.656,10.812 -6.854,20.914 1.807,10.097 9.742,46.873 12.256,59.126 2.527,12.26 -5.402,20.188 -10.449,22.354 l 5.408,0.359 -1.801,3.973 c 6.484,0.721 13.695,-1.439 13.695,-1.439 -1.438,3.974 -11.176,5.406 -11.176,5.406 0,0 4.686,1.439 12.258,-1.445 7.581,-2.883 12.269,-4.688 12.269,-4.688 l 3.604,9.373 6.853,-6.853 2.891,7.215 c -0.016,0.007 5.388,-1.797 3.58,-10.088 z"
                                 id="path3577"
                                 inkscape:connector-curvature="0"
                                 style="fill:#ffffff" />
                              <path
                                 d="m 109.021,70.691 c 0,-2.093 1.693,-3.787 3.789,-3.787 2.09,0 3.785,1.694 3.785,3.787 0,2.094 -1.695,3.786 -3.785,3.786 -2.096,10e-4 -3.789,-1.692 -3.789,-3.786 z"
                                 id="path3579"
                                 inkscape:connector-curvature="0"
                                 style="fill:#2d4f8e" />
                              <path
                                 d="m 113.507,69.429 c 0,-0.545 0.441,-0.983 0.98,-0.983 0.543,0 0.984,0.438 0.984,0.983 0,0.543 -0.441,0.984 -0.984,0.984 -0.538,0.001 -0.98,-0.441 -0.98,-0.984 z"
                                 id="path3581"
                                 inkscape:connector-curvature="0"
                                 style="fill:#ffffff" />
                              <path
                                 d="m 134.867,68.445 c 0,-1.793 1.461,-3.25 3.252,-3.25 1.801,0 3.256,1.457 3.256,3.25 0,1.801 -1.455,3.258 -3.256,3.258 -1.791,0 -3.252,-1.457 -3.252,-3.258 z"
                                 id="path3583"
                                 inkscape:connector-curvature="0"
                                 style="fill:#2d4f8e" />
                              <path
                                 d="m 138.725,67.363 c 0,-0.463 0.379,-0.843 0.838,-0.843 0.479,0 0.846,0.38 0.846,0.843 0,0.469 -0.367,0.842 -0.846,0.842 -0.459,0 -0.838,-0.373 -0.838,-0.842 z"
                                 id="path3585"
                                 inkscape:connector-curvature="0"
                                 style="fill:#ffffff" />
                              <linearGradient
                                 id="linearGradient5047"
                                 gradientUnits="userSpaceOnUse"
                                 x1="1893.3184"
                                 y1="-2381.9795"
                                 x2="1901.8867"
                                 y2="-2381.9795"
                                 gradientTransform="matrix(1,0,0,-1,-1788,-2321)">
                                <stop
                                   offset="0.0056"
                                   style="stop-color:#6176B9"
                                   id="stop5043" />
                                <stop
                                   offset="0.691"
                                   style="stop-color:#394A9F"
                                   id="stop5045" />
                              </linearGradient>
                              <path
                                 d="m 113.886,59.718 c 0,0 -2.854,-1.291 -5.629,0.453 -2.77,1.742 -2.668,3.523 -2.668,3.523 0,0 -1.473,-3.283 2.453,-4.892 3.93,-1.609 5.844,0.916 5.844,0.916 z"
                                 id="path3592"
                                 inkscape:connector-curvature="0"
                                 style="fill:url(#SVGID_3_-7)" />
                              <linearGradient
                                 id="linearGradient5054"
                                 gradientUnits="userSpaceOnUse"
                                 x1="1920.2734"
                                 y1="-2379.3711"
                                 x2="1928.0781"
                                 y2="-2379.3711"
                                 gradientTransform="matrix(1,0,0,-1,-1788,-2321)">
                                <stop
                                   offset="0.0056"
                                   style="stop-color:#6176B9"
                                   id="stop5050" />
                                <stop
                                   offset="0.691"
                                   style="stop-color:#394A9F"
                                   id="stop5052" />
                              </linearGradient>
                              <path
                                 d="m 140.078,59.458 c 0,0 -2.051,-1.172 -3.643,-1.152 -3.271,0.043 -4.162,1.488 -4.162,1.488 0,0 0.549,-3.445 4.732,-2.754 2.268,0.377 3.073,2.418 3.073,2.418 z"
                                 id="path3599"
                                 inkscape:connector-curvature="0"
                                 style="fill:url(#SVGID_4_-5)" />
                            </g>
                          </g>
                        </g>
                      </g>
                    </g>
                  </g>
                </g>
              </g>
            </g>
          </g>
        </g>
        <path
           d="m 124.4,85.295 c 0.379,-2.291 6.299,-6.625 10.491,-6.887 4.201,-0.265 5.51,-0.205 9.01,-1.043 3.51,-0.838 12.535,-3.088 15.033,-4.242 2.504,-1.156 13.104,0.572 5.631,4.738 -3.232,1.809 -11.943,5.131 -18.172,6.987 -6.219,1.861 -9.99,-1.776 -12.06,1.281 -1.646,2.432 -0.334,5.762 7.099,6.453 10.037,0.93 19.66,-4.521 20.719,-1.625 1.064,2.895 -8.625,6.508 -14.525,6.623 -5.893,0.111 -17.771,-3.896 -19.555,-5.137 -1.786,-1.238 -4.165,-4.13 -3.671,-7.148 z"
           id="path3601"
           inkscape:connector-curvature="0"
           style="fill:#fdd20a" />
      </g>
      <g
         id="g3603">
        <path
           d="m 128.943,115.592 c 0,0 -14.102,-7.521 -14.332,-4.47 -0.238,3.056 0,15.509 1.643,16.451 1.646,0.938 13.396,-6.108 13.396,-6.108 z"
           id="path3605"
           inkscape:connector-curvature="0"
           style="fill:#65bc46" />
        <path
           d="m 134.346,115.118 c 0,0 9.635,-7.285 11.754,-6.815 2.111,0.479 2.582,15.51 0.701,16.229 -1.881,0.69 -12.908,-3.813 -12.908,-3.813 z"
           id="path3607"
           inkscape:connector-curvature="0"
           style="fill:#65bc46" />
        <path
           d="m 125.529,116.389 c 0,4.932 -0.709,7.049 1.41,7.519 2.109,0.473 6.104,0 7.518,-0.938 1.41,-0.938 0.232,-7.279 -0.232,-8.465 -0.477,-1.174 -8.696,-0.232 -8.696,1.884 z"
           id="path3609"
           inkscape:connector-curvature="0"
           style="fill:#43a244" />
        <path
           d="m 126.426,115.292 c 0,4.933 -0.707,7.05 1.409,7.519 2.106,0.479 6.104,0 7.519,-0.938 1.41,-0.941 0.231,-7.279 -0.236,-8.466 -0.473,-1.173 -8.692,-0.227 -8.692,1.885 z"
           id="path3611"
           inkscape:connector-curvature="0"
           style="fill:#65bc46" />
      </g>
    </g>
    <circle
       stroke-miterlimit="10"
       cx="96"
       cy="96"
       r="65.166664"
       id="circle3613"
       style="fill:none;stroke:#de5833;stroke-width:5.66666651;stroke-miterlimit:10" />
  </g>
</svg>
